<svg width="169px" height="401px" viewBox="0 0 169 401" version="1.1" xmlns="http://www.w3.org/2000/svg" xmlns:xlink="http://www.w3.org/1999/xlink">
    <g id="Symbols" stroke="none" stroke-width="1" fill="none" fill-rule="evenodd">
        <g id="Scene/Home" transform="translate(-528.000000, -209.000000)">
            <g id="Lamp" transform="translate(524.000000, 198.000000)">
                <path d="M60,36.23565 L78.567634,17.6556884 C81.6911838,14.5308497 86.7565036,14.529805 89.8813422,17.6533549 C89.8821202,17.6541326 89.882898,17.6549104 89.8836757,17.6556884 L139.316042,67.1131165 C142.315196,70.1135086 144,74.182171 144,78.4244913 L144,406" id="Body" stroke="#CBCBCB" stroke-width="8"></path>
                <rect id="Lamp-Base" fill="#AFB9C5" x="114" y="405" width="59" height="7" rx="3"></rect>
                <g id="Lamp-Top" transform="translate(48.083261, 49.083261) rotate(45.000000) translate(-48.083261, -49.083261) translate(14.583261, 14.583261)">
                    <path d="M33.0303119,1.38390164 L33.0303119,1.38390164 C51.2557087,1.38390164 66.0303119,16.1585049 66.0303119,34.3839016 L66.0303119,62.3839016 L0.03031192,62.3839016 L0.03031192,34.3839016 C0.03031192,16.1585049 14.8049152,1.38390164 33.0303119,1.38390164 Z" id="Lamp" fill="#C5CFD6"></path>
                    <ellipse id="Lamp" fill="#F2F2F2" cx="33.2089288" cy="61.4454002" rx="33" ry="6.5"></ellipse>
                </g>
            </g>
        </g>
    </g>
</svg>