<svg width="336px" height="452px" viewBox="0 0 336 452" version="1.1" xmlns="http://www.w3.org/2000/svg" xmlns:xlink="http://www.w3.org/1999/xlink">
    <g id="Symbols" stroke="none" stroke-width="1" fill="none" fill-rule="evenodd">
        <g id="Scene/Plants" transform="translate(-404.000000, -157.000000)">
            <path d="M582.663291,177.553408 C587.699839,175.376482 594.096049,178.542571 591.028861,184.834517 C587.743478,191.572193 576.927275,191.090703 570.828432,190.634117 C571.441247,190.634117 573.740391,184.418162 574.464173,183.498604 C576.598736,180.785909 579.566802,178.894429 582.663291,177.553408 Z M519.628132,298.136439 C518.334132,299.130439 519.522132,298.230439 519.628132,298.136439 Z M585.75877,208.969059 C588.516388,211.315587 588.45021,215.199928 585.966044,217.701304 C583.008019,220.679131 577.9117,220.297969 574.11896,219.793933 C572.40333,219.565737 563.242692,218.347022 565.502104,216.955906 C565.33104,217.010448 564.972681,217.14586 564.586852,217.335188 C564.346489,218.061777 564.096137,218.785233 563.837044,219.504927 C563.889487,219.539407 563.933814,219.575768 563.990002,219.610248 C563.928819,219.579529 563.886365,219.547557 563.832674,219.516838 C561.237378,226.710016 557.723709,233.504479 553.259201,239.799293 C554.833735,239.272688 556.455716,238.896541 558.087063,238.776801 C562.918046,238.421343 572.818502,242.67995 567.115345,248.788572 C561.646932,254.644548 553.977793,247.652609 548.183485,246.440163 C542.102614,254.05149 535.457983,261.302971 528.52679,268.285507 C528.92136,268.432204 529.259741,268.712434 529.440169,269.130583 C532.136604,267.935691 534.973512,266.172817 537.431457,265.784132 C540.978215,265.2243 548.194723,265.150325 550.681387,268.42907 C553.739927,272.460735 550.080167,275.413486 546.188785,275.952003 C540.546186,276.733134 533.376503,273.620521 528.097883,271.494665 C527.477309,271.571148 526.815531,271.356118 526.440315,270.843304 C526.323567,270.798167 526.206819,270.753656 526.093193,270.710399 C519.080838,277.652813 511.827496,284.341327 504.624099,290.877503 C504.697144,290.877503 504.77019,290.876876 504.846357,290.876876 C506.692469,289.799843 508.657202,288.93972 510.758661,288.545393 C515.620236,287.626969 521.268453,287.917228 524.981905,291.594689 C528.680997,295.256477 529.738594,301.37701 525.520692,305.050082 C517.078022,312.402496 506.168041,294.057823 502.153667,293.105545 C494.837269,299.674319 487.145654,305.766642 479.345408,311.722297 C480.206969,311.50852 481.086635,311.364331 481.990025,311.326089 C489.349502,311.008872 506.066901,320.887111 496.617203,329.248851 C488.382431,336.535439 480.094592,321.245704 474.054926,315.733901 C466.707936,321.280811 459.324735,326.78509 452.128206,332.52885 C455.930935,331.729538 459.563225,331.772795 463.520161,333.198391 C467.614448,334.675393 474.162933,338.168542 471.238622,343.647745 C468.264364,349.219731 460.339254,346.19802 456.235603,344.16432 C453.997418,343.055314 449.580983,339.476279 445.623423,337.858848 C434.107228,347.643677 424.004492,358.556318 416.104355,371.621146 C411.172232,379.778513 407.293336,388.566553 404.410853,397.656764 C402.570984,403.458826 399.035464,413.180337 399.238368,420.868148 C397.161881,405.39222 403.333278,387.259443 409.660131,373.855457 C415.477538,361.529758 423.775367,350.876657 433.337442,341.397134 C431.426401,334.454721 412.846657,323.612293 424.594474,317.871041 C430.832049,314.836791 436.749347,320.724114 437.765739,326.684158 C438.463728,330.779768 436.810531,335.793176 435.132985,339.644918 C438.135961,336.759873 441.24632,333.978268 444.441586,331.29885 C448.857397,327.595686 453.368104,324.011636 457.917519,320.477738 C451.098703,313.364177 445.320628,293.746875 455.101839,291.100683 C469.544843,287.206311 461.330673,313.121563 460.082035,317.993916 C459.799842,317.995797 459.585076,317.899252 459.433367,317.708671 C459.489556,318.163809 459.556982,318.650919 459.643762,319.143044 C468.349272,312.416915 477.170904,305.838109 485.730322,298.932684 C485.022344,298.349656 483.960377,296.208128 483.098192,295.052731 C481.152189,292.447915 479.301706,289.736524 478.002497,286.740516 C475.95036,282.006084 474.123601,274.530169 480.346817,272.134741 C487.115063,269.524283 489.821487,278.013287 489.607346,282.981557 C489.458758,286.417657 488.352464,289.631203 487.688812,292.972013 C487.481538,294.013939 487.819919,298.77721 486.496362,296.6664 C486.524457,297.420574 486.505727,297.964733 486.452036,298.348402 C487.98911,297.102103 489.515571,295.840758 491.033291,294.569382 C490.975229,294.395728 490.935273,294.207655 490.935273,293.991997 C490.935273,292.507472 492.454866,292.015346 493.476877,292.50371 C495.481566,290.789108 497.468775,289.050684 499.424143,287.274018 C503.568375,283.510043 507.775663,279.635733 511.959852,275.673028 C511.138247,274.888762 511.534066,273.883196 510.770523,273.056301 C510.008229,272.231286 508.448679,271.715338 507.542168,270.938595 C505.262153,268.983886 503.431649,266.214193 502.144303,263.51534 C500.01912,259.056122 497.455664,249.801033 504.436179,248.094581 C511.63146,246.332334 514.76804,255.276475 514.936606,260.774485 C514.969695,261.839607 513.674857,271.35361 512.885093,274.791591 C520.62915,267.425385 528.267697,259.762024 535.235101,251.923127 C533.253512,251.80088 527.845658,247.444474 526.767458,246.276539 C524.136576,243.427855 520.04229,237.223316 525.068685,234.316956 C529.537563,231.739724 534.651987,236.07983 536.293323,240.123406 C536.563029,240.789186 537.317206,246.894046 537.25852,249.612333 C540.146622,246.284689 542.911108,242.930087 545.496414,239.554798 C547.22016,237.311083 548.842142,235.000289 550.370476,232.633699 C550.043332,232.424938 549.743659,232.075121 549.465837,231.64506 C542.32175,230.04393 533.721127,218.315676 542.392923,214.84635 C546.521547,213.196947 550.692,217.266854 552.501902,220.514881 C552.872748,221.179406 553.358468,224.448121 553.758032,227.027233 C558.210678,219.15511 561.738082,210.75889 564.541276,202.107517 C563.921951,201.918816 563.415628,201.411645 563.388783,200.583496 C559.993734,198.40498 557.317277,196.598849 555.075346,192.634263 C553.68249,190.171756 551.234534,184.584097 555.763346,183.495153 C561.656921,182.078334 564.837828,191.133438 565.08381,195.524323 C565.112529,196.034002 565.03324,197.50787 564.943338,198.85761 C565.146242,198.840683 565.34977,198.854475 565.547679,198.900239 C567.165291,193.537015 568.517566,188.089784 569.652579,182.621866 C566.538474,181.436377 566.862496,164.772453 569.095686,162.514319 C574.087744,157.457654 577.012055,165.293416 576.548186,169.329469 C576.000658,174.088352 573.609515,178.318121 570.831294,182.037584 C570.533493,182.431285 570.613406,182.415612 570.571577,181.843242 C570.517261,182.122217 570.412376,182.32471 570.265036,182.467646 C570.266285,184.987828 570.390524,187.574463 570.149537,189.791848 C569.45904,196.141831 568.381465,202.50874 566.974873,208.738982 C566.632746,210.254227 566.25316,211.755052 565.837988,213.240831 C568.497588,211.205251 572.031236,209.458049 573.405987,208.925802 C576.973972,207.545971 582.434893,206.140436 585.75877,208.969059 Z M398.828432,420.868148 C398.873761,423.097495 399.167933,425.151967 399.828432,426.868148 C399.367285,424.929454 399.040736,422.92262 398.828432,420.868148 Z" id="Leaf-Bottom" fill="#F2F2F2" transform="translate(495.328432, 293.868148) scale(-1, 1) rotate(-3.000000) translate(-495.328432, -293.868148) "></path>
            <g id="Plant-Right" opacity="0.7" transform="translate(482.000000, 208.000000)">
                <path d="M79.9047528,113.040378 C66.2530447,113.763024 50.2943362,123.453253 50.3969417,138.364313 C50.4717916,149.198479 51.9215094,159.856965 51.4184788,170.735674 C51.0157194,179.430065 49.1251777,187.934396 46.1884145,196.124248 C43.3645394,203.999655 36.5431303,211.167853 35.436189,219.380461 C34.7305556,224.613392 36.1801359,231.717944 38.4174204,236.528898 C41.1381257,242.378219 39.9806746,242.014971 36.3655703,247.542924 C29.2817053,258.37603 23.0341453,269.378157 19.1082064,281.839931 C13.4530146,299.789359 10.6714461,320.367962 15.4148106,338.86673 C16.0178728,341.21586 17.3353725,349.734582 20.6839214,349.987756 C24.4238591,350.27121 22.1932685,345.554422 21.8310908,343.993101 C19.5216852,334.030746 17.4849615,325.324509 17.9135797,314.914948 C19.5678962,274.751412 45.2035015,245.709474 60.1509621,210.198324 C60.9846805,208.360426 62.6955789,204.012856 63.9005736,201.136619 C65.8029769,196.595678 67.3104972,188.177093 70.1621387,184.658557 C75.5325909,178.03009 71.2830113,190.667575 70.3556501,193.092328 C69.1832784,196.159421 67.8821244,199.424932 66.6353083,202.135537 C60.9464558,214.690583 54.5660296,228.413437 48.6881887,241.356913 C80.3924105,245.15732 98.2859955,205.641673 104.022858,180.295993 C108.749645,159.413931 111.985935,111.412785 79.9047528,113.040378" id="Leaf-Me-Alone!" fill="#69A1AC" transform="translate(60.000000, 231.500000) scale(-1, 1) rotate(6.000000) translate(-60.000000, -231.500000) "></path>
                <path d="M210.80537,78.1211996 C187.982635,79.932006 173.33094,94.991753 166.510526,116.055531 C162.834567,127.406956 162.413232,139.068178 160.370472,150.73361 C157.297501,168.284374 150.685653,181.584667 137.763871,194.088576 C133.761608,197.961058 130.812263,201.937087 128.715679,206.190925 C124.553629,210.438027 120.930652,215.244115 118.268925,221.120186 C114.86881,228.624383 113.90672,237.627904 117.832452,245.109372 C118.887892,247.120537 121.521026,251.158021 124.250033,252.992399 C114.032868,274.752382 108.415067,298.584143 109.048331,322.385598 C109.430981,336.75335 110.132365,351.126994 110.950647,365.477066 C111.170985,369.330186 112.42574,375.692843 114.310394,369.230849 C116.035261,363.320262 113.872239,354.041458 113.672084,347.866532 C112.69822,317.785763 111.865642,290.435094 124.248351,262.330974 C125.546836,259.385362 126.923534,256.463322 128.357419,253.564853 C128.441517,253.516026 128.519729,253.457097 128.598782,253.399851 C128.653446,253.441944 128.703065,253.487403 128.757729,253.528654 C128.849397,253.365336 128.974704,253.17087 129.121036,252.953674 C129.532279,252.529385 129.891381,251.99313 130.232822,251.394579 C131.331152,249.872525 132.574133,248.084448 132.580861,247.105384 C132.580861,247.097807 132.576656,247.086022 132.576656,247.078445 C140.242263,234.565276 149.022178,222.741577 157.990476,211.149386 C157.923197,211.23357 167.718185,197.897078 166.203566,205.272473 C165.473588,208.826738 158.268843,215.595164 155.359024,219.35989 C148.922101,227.735396 141.3633,238.347681 135.081959,248.609759 C134.236766,249.095503 133.042563,251.480447 132.178869,253.256738 C131.702028,254.156669 131.257146,255.064177 130.819832,255.854668 C153.076582,263.208176 170.390004,248.395931 182.195796,231.167594 C182.210092,231.147389 182.222707,231.126343 182.236163,231.106139 C185.828864,226.345511 189.509028,221.618557 194.10671,217.855515 C201.777363,211.576201 209.992135,210.468334 219.036121,207.377925 C243.699779,198.951066 254.18606,166.987092 257.516373,143.269822 C261.273908,116.512653 242.894113,75.4828606 210.80537,78.1211996" id="Leaf-Me-Alone!" fill="#89C5CC"></path>
                <path d="M187.087285,8.28187838 C160.498481,29.1635113 144.586107,61.0733802 131.288496,91.3053591 C116.436639,125.071454 104.873047,159.852852 99.4843227,196.372108 C95.9443747,220.365462 91.8946121,244.44009 89.9250364,268.625714 C89.2249833,277.215152 88.8748455,285.868946 89.0407006,294.486685 C89.0545865,295.194866 89.4310473,314.437622 92.9380414,310.458848 C94.9325477,308.196212 92.5847722,290.502543 92.6250129,287.616161 C92.8548439,271.35938 94.6480975,255.202131 97.0075499,239.126854 C100.892071,212.659438 103.8149,186.195152 110.209077,160.179766 C111.163144,156.295431 112.0616,152.201098 113.539379,148.477679 C115.109085,144.518959 113.591965,146.130097 117.057176,144.962594 C120.424285,143.827288 124.27953,144.598829 127.821221,143.078763 C141.869801,137.048323 151.32577,117.815648 158.339102,105.310098 C166.360518,91.0095004 172.210631,75.380055 177.309925,59.8610252 C181.055021,48.4585852 184.191433,37.0431561 186.706808,25.3142977 C187.499429,21.6177491 188.064185,17.7150456 189.314089,14.1464607 C189.650899,13.1838012 190.889167,11.5711488 190.976475,10.6889811 C191.161137,8.82194319 190.19407,7.57272465 190.321563,6 C189.227765,6.73737876 188.148642,7.49851591 187.087285,8.28187838" id="Leaf-Me-Alone!" fill="#89C5CC" transform="translate(140.000000, 158.500000) rotate(-8.000000) translate(-140.000000, -158.500000) "></path>
                <path d="M38,328 C38,368.316787 70.6832133,401 111,401 C151.316787,401 184,368.316787 184,328" id="Base" fill="#89C5CC"></path>
                <path d="M116.857294,328.232365 L113,328.232365 C113.267642,323.392844 113.62115,318.561789 114.430188,313.776147 C117.524558,295.473303 127.199937,268.591213 148.420279,265.620466 C149.203131,265.50975 152.082849,265.491157 155.57117,265.695686 C157.224419,264.771923 159.076327,264.213271 161.027565,264.084806 C179.094613,262.752829 199.271153,277.328505 207.986064,292.49664 C215.01153,304.726145 213.827993,320.785081 209.488635,333.777767 C206.582823,342.476182 200.240879,354.878099 189.6648,354.998958 C176.432916,355.150242 175.794849,338.796344 175.538949,329.235863 C175.198872,316.525461 173.592762,305.452985 163.577306,296.789222 C161.24306,294.770973 158.691635,292.995286 156.33382,291.004928 C152.641788,287.889659 148.561698,284.700014 148.086094,279.546212 C147.429508,272.435859 151.443098,271.156282 157.571231,272.477271 C158.615876,272.702085 169.138923,277.424009 167.580795,273.69177 C167.105191,272.551646 165.367764,271.648167 163.174937,270.971192 C157.500522,270.354223 150.733481,269.63837 148.787294,270.066022 C127.791706,274.672159 119.617215,303.755053 117.446273,322.232845 C117.211978,324.227323 117.022514,326.228307 116.857293,328.232365 Z" id="Leaf-Me-Alone!" fill="#69A1AC"></path>
            </g>
        </g>
    </g>
</svg>