<svg width="236px" height="206px" viewBox="0 0 236 206" version="1.1" xmlns="http://www.w3.org/2000/svg" xmlns:xlink="http://www.w3.org/1999/xlink">
    <g id="Symbols" stroke="none" stroke-width="1" fill="none" fill-rule="evenodd">
        <g id="Scene/Plants" transform="translate(-495.000000, -14.000000)" fill="#F2F2F2">
            <g id="Top-Leaves" transform="translate(495.000000, 0.000000)">
                <path d="M211.459988,136.913619 C211.697988,126.527619 207.442988,116.955619 202.732988,107.921619 C193.563988,90.3346193 188.977988,79.8126193 190.459988,58.9256193 C191.331988,46.6416193 192.373988,33.6626193 186.103988,22.5076193 C181.538988,14.3846193 171.962988,5.69461932 161.850988,7.16361932 C145.843988,10.8096193 136.907988,26.0616193 133.481988,41.2056193 C129.235988,59.9756193 134.097988,73.9796193 148.271988,86.0066193 C156.258988,92.7816193 160.763988,99.7606193 162.941988,110.078619 C164.684988,118.329619 164.189988,127.791619 167.170988,135.726619 C171.627988,147.588619 179.674988,154.832619 191.778988,157.035619 C187.410988,133.523619 181.274988,109.229619 171.435988,87.4316193 C170.552988,85.2746193 164.205988,76.0546193 166.846988,73.7256193 C169.755988,71.1616193 174.556988,85.9036193 174.518988,85.8116193 C177.307988,92.3626193 179.660988,99.1256193 181.922988,105.916619 C181.910988,105.918619 181.897988,105.917619 181.884988,105.919619 C184.219988,112.892619 186.494988,119.937619 188.667988,127.028619 C189.511988,130.003619 190.301988,132.995619 191.003988,136.027619 C192.033988,140.476619 192.155988,152.193619 195.076988,155.672619 C195.701988,156.416619 196.337988,156.925619 196.978988,157.258619 C198.148988,162.164619 199.240988,167.081619 200.197988,172.008619 C202.696988,184.876619 204.141988,198.075619 202.521988,211.160619 C202.048988,214.979619 197.189988,228.261619 198.799988,231.652619 C201.742988,237.854619 203.397988,228.290619 204.025988,225.445619 C209.218988,201.883619 207.341988,179.762619 201.675988,156.694619 C206.884988,153.106619 211.362988,141.121619 211.459988,136.913619" id="Leaf" transform="translate(171.734760, 120.352443) rotate(-18.000000) translate(-171.734760, -120.352443) "></path>
                <path d="M115.85853,100.65925 C108.257019,101.771171 101.081536,111.378886 97.541036,117.784796 C93.1599315,125.711405 90.104439,134.755685 87.8025125,143.463054 C84.0100599,157.806497 83.4975663,173.726407 83.4506116,188.416535 C83.4448854,190.186755 83.0755464,211.810007 85.6036573,211.455273 C88.1082908,211.103988 86.5221374,188.659157 86.7357241,184.011394 C87.1903832,174.09264 86.510685,164.31072 88.8372342,154.517877 C91.2456677,144.377773 95.6617019,134.821802 101.24187,126.063265 C101.958215,124.939269 103.473937,120.760077 105.195801,121.725391 C106.879872,122.669432 102.214748,128.236513 101.552229,129.318538 C98.8168301,133.786922 96.4416084,138.518625 94.4746637,143.379689 C90.7892908,152.487211 88.8744544,162.017885 88.9397329,171.831426 C94.724898,172.719698 99.7650864,169.33219 101.705691,163.687492 C103.382318,158.808606 103.546087,153.133437 105.450616,148.52017 C106.762485,145.343087 108.849107,142.644924 111.400695,140.363587 C118.131826,134.346332 125.159001,132.841156 127.165456,122.85456 C128.738439,115.02569 126.785237,99.0684087 115.85853,100.65925" id="Leaf" transform="translate(105.535828, 156.004078) scale(-1, 1) rotate(58.000000) translate(-105.535828, -156.004078) "></path>
                <path d="M2.35176464,80 L3.05533376e-13,80 C0.164757456,77.0154001 0.379352103,74.0356557 0.883673399,71.0844844 C2.77417712,60.0223263 8.68534409,43.7749092 21.6499002,41.9794028 C22.1281833,41.9124864 23.8875448,41.9012485 26.0187329,42.0248651 C27.0287844,41.4665469 28.1602067,41.1288998 29.3523143,41.0512563 C40.3903669,40.2462156 52.7172123,49.0556901 58.0415826,58.2232442 C62.3337871,65.6147029 61.6107055,75.3206535 58.9595774,83.1733759 C57.1842731,88.4306594 53.3096661,95.9263239 46.8482165,95.9993701 C38.7642046,96.0908055 38.3743782,86.2065813 38.2180362,80.4282689 C38.0102659,72.7461579 37.0290143,66.0540017 30.910077,60.8176615 C29.4839707,59.597841 27.9251794,58.5246237 26.4846732,57.3216599 C24.2290287,55.4388046 21.7362997,53.5109978 21.4457299,50.3960624 C21.0445893,46.0985958 23.4966899,45.3252255 27.240669,46.1236256 C27.878894,46.2595018 34.3079438,49.1134119 33.3560062,46.8576634 C33.0654364,46.1685771 32.0039566,45.6225184 30.6642498,45.2133575 C27.1974692,44.8404643 23.0631495,44.407806 21.8741275,44.6662772 C9.04688492,47.450206 4.05268426,65.0277791 2.72634882,76.1956755 C2.5761854,77.4602545 2.45616417,78.7291607 2.35176454,80 Z" id="Leaf-Me-Alone!" transform="translate(30.552422, 68.500000) scale(-1, 1) translate(-30.552422, -68.500000) "></path>
            </g>
        </g>
    </g>
</svg>