<svg width="125px" height="257px" viewBox="0 0 125 257" version="1.1" xmlns="http://www.w3.org/2000/svg" xmlns:xlink="http://www.w3.org/1999/xlink">
    <g id="Symbols" stroke="none" stroke-width="1" fill="none" fill-rule="evenodd">
        <g id="Scene/Home" transform="translate(-135.000000, -353.000000)">
            <g id="Table" transform="translate(135.000000, 353.000000)">
                <g id="Lamp" transform="translate(23.000000, 0.000000)">
                    <rect id="Lamp-Base" fill="#AFB9C5" x="21" y="144" width="38" height="9" rx="2"></rect>
                    <path d="M31,115 C35.2931455,101.08547 37.6987626,86.4188034 38.2168511,71 L41,71 L42.7831489,71 C43.3012374,86.4188034 45.7068545,101.08547 50,115 L56.5,115 C65.0604136,115 72,121.939586 72,130.5 C72,139.060414 65.0604136,146 56.5,146 L23.5,146 C14.9395864,146 8,139.060414 8,130.5 C8,121.939586 14.9395864,115 23.5,115 L31,115 Z" id="Lamp-Body" fill="#DDE3E9"></path>
                    <path d="M4.62222222,1.67861504 C16.0814815,0.559538347 27.5407407,1.45972368e-15 39,0 C50.4592593,0 61.9185185,0.559538347 73.3777778,1.67861504 L78,81.1330604 C65,82.3776868 52,83 39,83 C26,83 13,82.3776868 0,81.1330604 L4.62222222,1.67861504 Z" id="Shade" fill="#C5CFD6"></path>
                </g>
                <path d="M21,153 L104,153 L125,153 L125,257 L104,257 L104,175 L21,175 L21,257 L0,257 L0,153 L21,153 Z" fill="#F2F2F2"></path>
            </g>
        </g>
    </g>
</svg>